<svg xmlns="http://www.w3.org/2000/svg" xmlns:xlink="http://www.w3.org/1999/xlink" viewBox="0 0 36 36">
<title>🧰: toolbox (U+1F9F0) - emojiall.com</title>
<style>svg{stroke:#edf2f6;animation:dashoffset 10s both infinite,fill-opacity 10s both infinite,stroke-opacity 10s both infinite;stroke-dasharray:500%;stroke-dashoffset:500%}@keyframes stroke-opacity{2%,25%{stroke-opacity:.75;stroke-width:2%}100%,75%{stroke-opacity:0;stroke-width:0}}@keyframes fill-opacity{10%,25%{fill-opacity:0}0%,100%,50%{fill-opacity:1}}@keyframes dashoffset{0%,2%{stroke-dashoffset:500%}100%{stroke-dashoffset:0%}}</style>
<path fill="#292F33" d="M26 .5H10C8.07.5 6.5 2.07 6.5 4v4h3V4c0-.271.229-.5.5-.5h16c.271 0 .5.229.5.5v4h3V4c0-1.93-1.57-3.5-3.5-3.5z"/>
<path fill="#DD2E44" d="M36 31.765S36 36 31.765 36H4.235C0 36 0 31.765 0 31.765V11.647c0-4.235 4.235-4.235 4.235-4.235h27.529s4.235 0 4.235 4.235v20.118z"/>
<path fill="#CCD6DD" d="M4 22h28v2H4z"/>
<path fill="#BE1931" d="M0 15h36v2H0zm4 9h28v2H4zm0 6h28v2H4z"/>
<path fill="#CCD6DD" d="M4 28h28v2H4z"/>
<path fill="#AAB8C2" d="M10 19H8c-.552 0-1-.448-1-1v-4c0-.552.448-1 1-1h2c.552 0 1 .448 1 1v4c0 .552-.448 1-1 1zm18 0h-2c-.552 0-1-.448-1-1v-4c0-.552.448-1 1-1h2c.552 0 1 .448 1 1v4c0 .552-.448 1-1 1z"/>
<path fill="#292F33" d="M25 17v1c0 .552.448 1 1 1h2c.552 0 1-.448 1-1v-1h-4zM7 17v1c0 .552.448 1 1 1h2c.552 0 1-.448 1-1v-1H7z"/>
<path fill="#292F33" d="M26 15h2v3h-2zM8 15h2v3H8z"/>
</svg>